<svg width="29" height="29" viewBox="0 0 29 29" fill="none" xmlns="http://www.w3.org/2000/svg">
<g clip-path="url(#clip0_452_2421)">
<path fill-rule="evenodd" clip-rule="evenodd" d="M14.0451 1.75563C13.3179 1.75563 12.7284 2.34515 12.7284 3.07236C12.7284 3.79957 13.3179 4.38908 14.0451 4.38908C14.7723 4.38908 15.3618 3.79957 15.3618 3.07236C15.3618 2.34515 14.7723 1.75563 14.0451 1.75563ZM10.9727 3.07236C10.9727 1.37554 12.3483 0 14.0451 0C15.7419 0 17.1174 1.37554 17.1174 3.07236C17.1174 4.76918 15.7419 6.14472 14.0451 6.14472C12.3483 6.14472 10.9727 4.76918 10.9727 3.07236Z" fill="white"/>
<path fill-rule="evenodd" clip-rule="evenodd" d="M23.1912 7.9147C23.1838 7.91729 23.1753 7.92026 23.1656 7.9236C23.1271 7.93694 23.0712 7.95612 22.9991 7.9803C22.8551 8.02866 22.6464 8.09708 22.3839 8.17886C21.8593 8.34231 21.1175 8.55976 20.2441 8.77722C18.5087 9.20933 16.2068 9.65362 14.045 9.65362C11.8832 9.65362 9.56763 9.20738 7.81922 8.77356C6.93922 8.5552 6.19072 8.33687 5.66114 8.17278C5.39616 8.09068 5.18549 8.022 5.04001 7.97347C4.96726 7.94921 4.91076 7.92996 4.87189 7.91659C4.86475 7.91413 4.8582 7.91187 4.85226 7.90982C4.72058 7.88185 4.60462 7.91654 4.52404 7.98064C4.446 8.04272 4.37696 8.15111 4.38752 8.33218C4.39308 8.4241 4.42278 8.48827 4.51521 8.5687C4.63027 8.66882 4.82252 8.77009 5.10208 8.86358L10.1747 10.5049C10.188 10.5092 10.2012 10.5138 10.2143 10.5188C10.8927 10.7747 11.6458 11.2216 11.9959 12.1285C12.182 12.6074 12.2313 13.1386 12.2251 13.6387C12.2189 14.1467 12.154 14.6818 12.0715 15.1958C12.0697 15.2065 12.0678 15.2173 12.0657 15.228L11.742 16.8536C11.7404 16.8616 11.7387 16.8696 11.7369 16.8775L9.68552 25.8658C9.68501 25.868 9.68449 25.8703 9.68396 25.8725C9.68361 25.874 9.68326 25.8755 9.6829 25.8769C9.67066 25.9275 9.67603 26.0216 9.7524 26.1305C9.82807 26.2385 9.93899 26.3085 10.0485 26.3277C10.1596 26.3471 10.2409 26.323 10.3175 26.2659C10.4067 26.1996 10.5096 26.069 10.5734 25.8638C10.5744 25.8607 10.5754 25.8576 10.5764 25.8545L12.6009 19.5973L12.6009 19.5972C12.7142 19.2473 12.8143 18.8937 12.9014 18.5363L13.1924 17.3474C13.2885 16.9547 13.6405 16.6784 14.0448 16.6783C14.4492 16.6782 14.8012 16.9543 14.8976 17.347L15.2136 18.6352L15.2137 18.6355C15.285 18.9265 15.3668 19.2142 15.4592 19.4986L15.4595 19.4994L17.5202 25.8597C17.5217 25.8645 17.5232 25.8693 17.5247 25.8741C17.5837 26.0676 17.6842 26.1962 17.7758 26.2637C17.8563 26.3231 17.9419 26.3472 18.0524 26.3278C18.3216 26.2805 18.4495 26.051 18.4109 25.8576L16.3603 16.8737C16.3585 16.8657 16.3568 16.8578 16.3552 16.8498L16.0315 15.2242C16.0294 15.2135 16.0275 15.2027 16.0257 15.1919C15.9421 14.6711 15.8805 14.1095 15.8893 13.5823C15.8977 13.0754 15.9714 12.4997 16.239 12.0179C16.4822 11.5739 16.8762 11.2685 17.1966 11.0699C17.5317 10.8621 17.8783 10.7153 18.1259 10.6224C18.1273 10.6219 18.1286 10.6214 18.13 10.6209C18.1316 10.6203 18.1332 10.6197 18.1349 10.6191L22.962 8.86876C22.9622 8.86867 22.9624 8.86859 22.9627 8.86851C23.3298 8.7349 23.5207 8.6447 23.6286 8.55548C23.6694 8.52171 23.6802 8.50178 23.6838 8.49429C23.6869 8.48787 23.701 8.45806 23.701 8.38023C23.701 8.20018 23.6255 8.05079 23.5391 7.97303C23.4996 7.93751 23.4574 7.91551 23.4101 7.90464C23.3667 7.89466 23.2962 7.88886 23.1912 7.9147ZM5.39512 6.23982L5.39688 6.24044L5.40555 6.24347C5.41361 6.24629 5.42619 6.25066 5.44312 6.25648C5.47698 6.26813 5.52823 6.2856 5.59553 6.30805C5.73015 6.35295 5.92881 6.41774 6.18075 6.49581C6.68501 6.65205 7.40068 6.86083 8.24202 7.06959C9.9363 7.48999 12.0921 7.89798 14.045 7.89798C15.998 7.89798 18.1401 7.49188 19.8199 7.07361C20.6542 6.86588 21.3628 6.65814 21.8617 6.50269C22.111 6.42503 22.3074 6.36058 22.4405 6.31592C22.507 6.2936 22.5576 6.27624 22.591 6.26466C22.6077 6.25887 22.6201 6.25453 22.6281 6.25175L22.6366 6.24874L22.6383 6.24814C22.658 6.24113 22.6779 6.23483 22.698 6.22924C23.4744 6.01356 24.1975 6.20373 24.7134 6.66792C25.203 7.10848 25.4567 7.74885 25.4567 8.38023C25.4567 9.0474 25.1766 9.55352 24.7473 9.9085C24.3752 10.2162 23.9079 10.3928 23.5623 10.5186L18.7381 12.2679C18.5476 12.3395 18.3201 12.439 18.1217 12.562C17.9082 12.6944 17.8098 12.8042 17.7786 12.8617C17.7771 12.8643 17.7757 12.867 17.7742 12.8696C17.7144 12.9768 17.6513 13.2093 17.6447 13.6114C17.6384 13.9902 17.6827 14.4334 17.7566 14.8976L18.0747 16.4949L20.1244 25.4751C20.1254 25.4793 20.1263 25.4835 20.1272 25.4877C20.393 26.7363 19.5223 27.8522 18.356 28.057C17.0802 28.281 16.1523 27.3808 15.8479 26.3944L14.0462 20.8333L12.2481 26.3908C11.9407 27.3714 11.0308 28.2817 9.7462 28.0571C8.58323 27.8538 7.68678 26.6785 7.97499 25.4704L10.0225 16.4988L10.3406 14.9014C10.4157 14.4307 10.465 13.997 10.4696 13.6171C10.4745 13.2254 10.4306 12.9471 10.3593 12.7641L10.3582 12.7613C10.2703 12.5332 10.0733 12.345 9.61322 12.1685L4.55772 10.5327C4.55527 10.5319 4.55282 10.5311 4.55037 10.5303C3.85819 10.2996 2.71395 9.75981 2.63498 8.43636L2.63493 8.43562C2.54348 6.88085 3.9517 5.85204 5.32846 6.21917C5.35089 6.22515 5.37306 6.23202 5.39495 6.23976C5.395 6.23978 5.39507 6.2398 5.39512 6.23982Z" fill="white"/>
</g>
<defs>
<clipPath id="clip0_452_2421">
<rect width="28.0901" height="28.0901" fill="white"/>
</clipPath>
</defs>
</svg>
