<svg width="36" height="36" viewBox="0 0 36 36" fill="none" xmlns="http://www.w3.org/2000/svg">
<path fill-rule="evenodd" clip-rule="evenodd" d="M5.29979 7.8101C4.83763 7.8101 4.46298 8.18475 4.46298 8.64691V27.0567C4.46298 27.5189 4.83763 27.8935 5.29979 27.8935H30.404C30.8662 27.8935 31.2409 27.5189 31.2409 27.0567V8.64691C31.2409 8.18475 30.8662 7.8101 30.404 7.8101H5.29979ZM2.23149 8.64691C2.23149 6.95234 3.60521 5.57861 5.29979 5.57861H30.404C32.0986 5.57861 33.4723 6.95234 33.4723 8.64691V27.0567C33.4723 28.7513 32.0986 30.125 30.404 30.125H5.29979C3.60521 30.125 2.23149 28.7513 2.23149 27.0567V8.64691Z" fill="white"/>
<path fill-rule="evenodd" clip-rule="evenodd" d="M28.7304 24.5462C28.2683 24.5462 27.8936 24.9208 27.8936 25.383V27.0566C27.8936 27.5188 28.2683 27.8934 28.7304 27.8934H30.404C30.8662 27.8934 31.2408 27.5188 31.2408 27.0566V25.383C31.2408 24.9208 30.8662 24.5462 30.404 24.5462H28.7304ZM25.6621 25.383C25.6621 23.6884 27.0358 22.3147 28.7304 22.3147H30.404C32.0986 22.3147 33.4723 23.6884 33.4723 25.383V27.0566C33.4723 28.7512 32.0986 30.1249 30.404 30.1249H28.7304C27.0358 30.1249 25.6621 28.7512 25.6621 27.0566V25.383Z" fill="white"/>
<path fill-rule="evenodd" clip-rule="evenodd" d="M28.7304 18.9673C28.2683 18.9673 27.8936 19.342 27.8936 19.8041V21.4778C27.8936 21.9399 28.2683 22.3146 28.7304 22.3146H30.404C30.8662 22.3146 31.2408 21.9399 31.2408 21.4778V19.8041C31.2408 19.342 30.8662 18.9673 30.404 18.9673H28.7304ZM25.6621 19.8041C25.6621 18.1096 27.0358 16.7358 28.7304 16.7358H30.404C32.0986 16.7358 33.4723 18.1096 33.4723 19.8041V21.4778C33.4723 23.1723 32.0986 24.5461 30.404 24.5461H28.7304C27.0358 24.5461 25.6621 23.1723 25.6621 21.4778V19.8041Z" fill="white"/>
<path fill-rule="evenodd" clip-rule="evenodd" d="M28.7304 13.3887C28.2683 13.3887 27.8936 13.7634 27.8936 14.2255V15.8991C27.8936 16.3613 28.2683 16.736 28.7304 16.736H30.404C30.8662 16.736 31.2408 16.3613 31.2408 15.8991V14.2255C31.2408 13.7634 30.8662 13.3887 30.404 13.3887H28.7304ZM25.6621 14.2255C25.6621 12.531 27.0358 11.1572 28.7304 11.1572H30.404C32.0986 11.1572 33.4723 12.531 33.4723 14.2255V15.8991C33.4723 17.5937 32.0986 18.9674 30.404 18.9674H28.7304C27.0358 18.9674 25.6621 17.5937 25.6621 15.8991V14.2255Z" fill="white"/>
<path fill-rule="evenodd" clip-rule="evenodd" d="M28.7304 7.8101C28.2683 7.8101 27.8936 8.18475 27.8936 8.64691V10.3205C27.8936 10.7827 28.2683 11.1573 28.7304 11.1573H30.404C30.8662 11.1573 31.2408 10.7827 31.2408 10.3205V8.64691C31.2408 8.18475 30.8662 7.8101 30.404 7.8101H28.7304ZM25.6621 8.64691C25.6621 6.95234 27.0358 5.57861 28.7304 5.57861H30.404C32.0986 5.57861 33.4723 6.95234 33.4723 8.64691V10.3205C33.4723 12.0151 32.0986 13.3888 30.404 13.3888H28.7304C27.0358 13.3888 25.6621 12.0151 25.6621 10.3205V8.64691Z" fill="white"/>
<path fill-rule="evenodd" clip-rule="evenodd" d="M5.29979 24.5462C4.83763 24.5462 4.46298 24.9208 4.46298 25.383V27.0566C4.46298 27.5188 4.83763 27.8934 5.29979 27.8934H6.97341C7.43556 27.8934 7.81022 27.5188 7.81022 27.0566V25.383C7.81022 24.9208 7.43556 24.5462 6.97341 24.5462H5.29979ZM2.23149 25.383C2.23149 23.6884 3.60521 22.3147 5.29979 22.3147H6.97341C8.66798 22.3147 10.0417 23.6884 10.0417 25.383V27.0566C10.0417 28.7512 8.66798 30.1249 6.97341 30.1249H5.29979C3.60521 30.1249 2.23149 28.7512 2.23149 27.0566V25.383Z" fill="white"/>
<path fill-rule="evenodd" clip-rule="evenodd" d="M5.29979 18.9673C4.83763 18.9673 4.46298 19.342 4.46298 19.8041V21.4778C4.46298 21.9399 4.83763 22.3146 5.29979 22.3146H6.97341C7.43556 22.3146 7.81022 21.9399 7.81022 21.4778V19.8041C7.81022 19.342 7.43556 18.9673 6.97341 18.9673H5.29979ZM2.23149 19.8041C2.23149 18.1096 3.60521 16.7358 5.29979 16.7358H6.97341C8.66798 16.7358 10.0417 18.1096 10.0417 19.8041V21.4778C10.0417 23.1723 8.66798 24.5461 6.97341 24.5461H5.29979C3.60521 24.5461 2.23149 23.1723 2.23149 21.4778V19.8041Z" fill="white"/>
<path fill-rule="evenodd" clip-rule="evenodd" d="M5.29979 13.3887C4.83763 13.3887 4.46298 13.7634 4.46298 14.2255V15.8991C4.46298 16.3613 4.83763 16.736 5.29979 16.736H6.97341C7.43556 16.736 7.81022 16.3613 7.81022 15.8991V14.2255C7.81022 13.7634 7.43556 13.3887 6.97341 13.3887H5.29979ZM2.23149 14.2255C2.23149 12.531 3.60521 11.1572 5.29979 11.1572H6.97341C8.66798 11.1572 10.0417 12.531 10.0417 14.2255V15.8991C10.0417 17.5937 8.66798 18.9674 6.97341 18.9674H5.29979C3.60521 18.9674 2.23149 17.5937 2.23149 15.8991V14.2255Z" fill="white"/>
<path fill-rule="evenodd" clip-rule="evenodd" d="M5.29979 7.8101C4.83763 7.8101 4.46298 8.18475 4.46298 8.64691V10.3205C4.46298 10.7827 4.83763 11.1573 5.29979 11.1573H6.97341C7.43556 11.1573 7.81022 10.7827 7.81022 10.3205V8.64691C7.81022 8.18475 7.43556 7.8101 6.97341 7.8101H5.29979ZM2.23149 8.64691C2.23149 6.95234 3.60521 5.57861 5.29979 5.57861H6.97341C8.66798 5.57861 10.0417 6.95234 10.0417 8.64691V10.3205C10.0417 12.0151 8.66798 13.3888 6.97341 13.3888H5.29979C3.60521 13.3888 2.23149 12.0151 2.23149 10.3205V8.64691Z" fill="white"/>
<path fill-rule="evenodd" clip-rule="evenodd" d="M10.8785 7.8101C10.4164 7.8101 10.0417 8.18475 10.0417 8.64691V15.8993C10.0417 16.3614 10.4164 16.7361 10.8785 16.7361H24.8253C25.2875 16.7361 25.6621 16.3614 25.6621 15.8993V8.64691C25.6621 8.18475 25.2875 7.8101 24.8253 7.8101H10.8785ZM7.81021 8.64691C7.81021 6.95234 9.18394 5.57861 10.8785 5.57861H24.8253C26.5199 5.57861 27.8936 6.95234 27.8936 8.64691V15.8993C27.8936 17.5938 26.5199 18.9676 24.8253 18.9676H10.8785C9.18394 18.9676 7.81021 17.5938 7.81021 15.8993V8.64691Z" fill="white"/>
<path fill-rule="evenodd" clip-rule="evenodd" d="M10.8785 18.9673C10.4164 18.9673 10.0417 19.342 10.0417 19.8041V27.0565C10.0417 27.5186 10.4164 27.8933 10.8785 27.8933H24.8253C25.2875 27.8933 25.6621 27.5186 25.6621 27.0565V19.8041C25.6621 19.342 25.2875 18.9673 24.8253 18.9673H10.8785ZM7.81021 19.8041C7.81021 18.1096 9.18394 16.7358 10.8785 16.7358H24.8253C26.5199 16.7358 27.8936 18.1096 27.8936 19.8041V27.0565C27.8936 28.7511 26.5199 30.1248 24.8253 30.1248H10.8785C9.18394 30.1248 7.81021 28.7511 7.81021 27.0565V19.8041Z" fill="white"/>
</svg>
